{"title":"Bella.Aaddormentata.Sleeping.Beauty.Bellocchio.2012","uid":8075459,"size":1156668980,"categoryP":"video","categoryS":"movies","magnet":"?xt=urn:btih:7d484896011178420dc25be8bd0033964cabe327&amp;dn=Bella.Aaddormentata.Sleeping.Beauty.Bellocchio.2012&amp;tr=udp%3A%2F%2Ftracker.openbittorrent.com%3A80&amp;tr=udp%3A%2F%2Fopen.demonii.com%3A1337&amp;tr=udp%3A%2F%2Ftracker.coppersurfer.tk%3A6969&amp;tr=udp%3A%2F%2Fexodus.desync.com%3A6969","seeders":4,"leechers":0,"uploader":"pamis2046","files":2,"time":1359334262,"description":"Director: Marco Bellocchio\n\n\nFormat : AVI \nFormat/Info : Audio Video Interleave \nFile size : 1.08 GiB \nDuration : 1h 50mn \nOverall bit rate : 1 398 Kbps \nWriting application : VirtualDubMod 1.5.10.2 (build 2540/release) \nWriting library : VirtualDubMod build 2540/release \n\nVideo \nID : 0 \nFormat : MPEG-4 Visual \nFormat profile : Advanced Simple@L5 \nFormat settings, BVOP : 2 \nFormat settings, QPel : No \nFormat settings, GMC : No warppoints \nFormat settings, Matrix : Default (MPEG) \nCodec ID : XVID \nCodec ID/Hint : XviD \nDuration : 1h 50mn \nBit rate : 1 260 Kbps \nWidth : 720 pixels \nHeight : 304 pixels \nDisplay aspect ratio : 2.35:1 \nFrame rate : 25.000 fps \nColor space : YUV \nChroma subsampling : 4:2:0 \nBit depth : 8 bits \nScan type : Progressive \nCompression mode : Lossy \nBits/(Pixel*Frame) : 0.230 \nStream size : 994 MiB (90%) \nWriting library : XviD 1.2.1 (UTC 2008-12-04) \n\nAudio \nID : 1 \nFormat : MPEG Audio \nFormat version : Version 1 \nFormat profile : Layer 3 \nMode : Joint stereo \nMode extension : MS Stereo \nCodec ID : 55 \nCodec ID/Hint : MP3 \nDuration : 1h 50mn \nBit rate mode : Constant \nBit rate : 128 Kbps \nChannel(s) : 2 channels \nSampling rate : 48.0 KHz \nCompression mode : Lossy \nStream size : 101 MiB (9%) \nAlignment : Aligned on interleaves \nInterleave, duration : 40 ms (1.00 video frame) \nInterleave, preload duration : 504 ms \nWriting library : LAME3.99r ","torrent":{"xt":"urn:btih:7d484896011178420dc25be8bd0033964cabe327","amp;dn":"Bella.Aaddormentata.Sleeping.Beauty.Bellocchio.2012","amp;tr":["udp%3A%2F%2Ftracker.openbittorrent.com%3A80","udp%3A%2F%2Fopen.demonii.com%3A1337","udp%3A%2F%2Ftracker.coppersurfer.tk%3A6969","udp%3A%2F%2Fexodus.desync.com%3A6969"],"infoHash":"7d484896011178420dc25be8bd0033964cabe327","infoHashBuffer":{"type":"Buffer","data":[125,72,72,150,1,17,120,66,13,194,91,232,189,0,51,150,76,171,227,39]},"announce":[],"urlList":[]}}